# xmcd CD database file
#
# Track frame offsets:
#	150
#	13702
#	30537
#	45494
#	58493
#	72527
#	85523
#	100642
#	116686
#	137746
#	155988
#	167117
#	181955
#	206929
#	227840
#	244310
#	263210
#	274806
#	287704
#	302513
#	316086
#	329521
#	339055
#
# Disc length: 4695 seconds
#
# Revision: 1
# Processed by: cddbd v1.5.1PL2 Copyright (c) Steve Scherf et al.
# Submitted via: Feurio! 1.67 - http://www.feurio.com
#
DISCID=51125517
DTITLE=Various Artist - Cheatin' Soul - and the Southern Dream of Freedom
DYEAR=1900
DGENRE=Soul
TTITLE0=Janet and The Jays - Without A Reason
TTITLE1=O.V. Wright - A Nickel And A Nail
TTITLE2=Margie Joseph - Never Can You Be
TTITLE3=Ann Sexton - I'm His Wife
TTITLE4=George Jackson - My Desires Are Getting The Best Of Me
TTITLE5=Joe Tex - I Wonna Be Free
TTITLE6=Earl Gaines - Hymn No 5
TTITLE7=Bobby Blue Bland - Rockin In The Same Old Boat
TTITLE8=Jerry Washington - Right Here
TTITLE9=Doris Duke - If She's Your Wife Who Am I
TTITLE10=Ann Peebles - I Feel Like Breaking Up
TTITLE11=Bobby Blue Bland - You Wouldn't Treat A Dog
TTITLE12=Clarence Carter - What Was I Supposed To Do
TTITLE13=Ruby Andrews - I Don't Wanna Wake Up In The Morning
TTITLE14=Sandra Phillips - Some Mother's Son
TTITLE15=Jean Stanback - The Next Man
TTITLE16=Margie Hendrix - Don't Destroy Me
TTITLE17=Ann Sexton - I Still Love You
TTITLE18=O.V. Wright - I Don't Know Why
TTITLE19=Wendy Rene - After Laughter Comes Tears
TTITLE20=Little Archie - I Am A Carpet
TTITLE21=Mickey Murray - East Of Nowhere
TTITLE22=Joe Tex - The Love You Save
EXTD=Published by TRIKONT, www.trikont.com
EXTT0=
EXTT1=
EXTT2=
EXTT3=
EXTT4=
EXTT5=
EXTT6=
EXTT7=
EXTT8=
EXTT9=
EXTT10=
EXTT11=
EXTT12=
EXTT13=
EXTT14=
EXTT15=
EXTT16=
EXTT17=
EXTT18=
EXTT19=
EXTT20=
EXTT21=
EXTT22=
PLAYORDER=
